<?xml version="1.0" standalone="no"?>
<!DOCTYPE svg PUBLIC "-//W3C//DTD SVG 20010904//EN"
 "http://www.w3.org/TR/2001/REC-SVG-20010904/DTD/svg10.dtd">
<svg version="1.0" xmlns="http://www.w3.org/2000/svg"
 width="500.000000pt" height="500.000000pt" viewBox="0 0 500.000000 500.000000"
 preserveAspectRatio="xMidYMid meet">

<g transform="translate(0.000000,500.000000) scale(0.100000,-0.100000)"
fill="#ffffff" stroke="none">
<path d="M2415 4684 c-384 -28 -734 -141 -1054 -339 -253 -156 -521 -426 -683
-688 -119 -190 -230 -462 -278 -677 -70 -312 -67 -689 6 -989 70 -283 210
-580 382 -810 73 -97 265 -295 362 -374 312 -252 720 -426 1120 -478 213 -27
531 -10 749 41 318 75 660 243 900 444 103 86 284 274 352 366 193 259 365
638 377 826 4 73 2 88 -23 143 -85 189 -330 240 -487 101 -53 -47 -75 -89
-123 -240 -166 -523 -607 -917 -1165 -1042 -81 -19 -128 -22 -315 -22 -191 -1
-233 2 -321 22 -151 33 -246 66 -379 132 -156 78 -286 171 -410 295 -553 553
-614 1413 -147 2042 219 294 542 504 907 589 113 27 133 28 345 28 209 0 234
-2 343 -27 65 -15 135 -27 156 -27 104 0 214 67 265 160 41 75 47 180 17 261
-25 66 -91 137 -153 167 -128 59 -530 111 -743 96z"/>
</g>
</svg>
